<svg xmlns="http://www.w3.org/2000/svg" version="1.1" xmlns:xlink="http://www.w3.org/1999/xlink" width="512" height="512" x="0" y="0" viewBox="0 0 64 64" style="enable-background:new 0 0 512 512" xml:space="preserve" class=""><g><path d="M29 6h2v2h-2zM36 18h2v2h-2zM42 31h2v2h-2zM48 44h2v2h-2z" fill="#000000" opacity="1" data-original="#000000" class=""></path><path d="m61.555 56.168-6-4A1.006 1.006 0 0 0 55 52H10v-2h40a1.006 1.006 0 0 0 .555-.168l6-4a1 1 0 0 0 0-1.664l-6-4A1.006 1.006 0 0 0 50 40H10v-3h34a1.006 1.006 0 0 0 .555-.168l6-4a1 1 0 0 0 0-1.664l-6-4A1.006 1.006 0 0 0 44 27H10v-3h28a1.006 1.006 0 0 0 .555-.168l6-4a1 1 0 0 0 0-1.664l-6-4A1.006 1.006 0 0 0 38 14H10v-2h21a1.006 1.006 0 0 0 .555-.168l6-4a1 1 0 0 0 0-1.664l-6-4A1.006 1.006 0 0 0 31 2H3a1 1 0 0 0-1 1v58a1 1 0 0 0 1 1h52a1.006 1.006 0 0 0 .555-.168l6-4a1 1 0 0 0 0-1.664zM10 4h20.7l4.5 3-4.5 3H10zm0 12h27.7l4.5 3-4.5 3H10zm0 13h33.7l4.5 3-4.5 3H10zm0 13h39.7l4.5 3-4.5 3H10zM8 60H4V4h4zm46.7 0H10v-6h44.7l4.5 3z" fill="#000000" opacity="1" data-original="#000000" class=""></path><path d="M53 56h2v2h-2zM25 6h2v2h-2zM21 6h2v2h-2zM17 6h2v2h-2zM32 18h2v2h-2zM28 18h2v2h-2zM38 31h2v2h-2zM44 44h2v2h-2z" fill="#000000" opacity="1" data-original="#000000" class=""></path></g></svg>