<svg xmlns="http://www.w3.org/2000/svg" version="1.1" xmlns:xlink="http://www.w3.org/1999/xlink" width="512" height="512" x="0" y="0" viewBox="0 0 512 512" style="enable-background:new 0 0 512 512" xml:space="preserve" class=""><g><path d="M288.802 223.18c-17.587-17.587-46.05-17.587-63.638 0-17.546 17.546-17.546 46.094 0 63.639 17.588 17.588 46.051 17.587 63.638 0 17.546-17.545 17.546-46.093 0-63.639zm-21.212 42.425c-5.862 5.862-15.35 5.863-21.213 0-5.863-5.863-5.862-15.349 0-21.213 5.862-5.862 15.35-5.862 21.213 0 5.863 5.865 5.863 15.35 0 21.213z" fill="#000000" opacity="1" data-original="#000000" class=""></path><path d="M498.809 140.451c-17.585-17.586-46.051-17.59-63.638 0l-72.125 72.123-63.639-63.639 72.123-72.123c17.587-17.586 17.59-46.051 0-63.639-17.545-17.544-46.093-17.544-63.638 0L235.77 85.298l-10.607-10.607c-5.857-5.858-15.355-5.858-21.213 0l-60.653 60.653c-31.885 31.885-45.611 77.467-36.718 121.932 4.978 24.885-.526 46.127-14.002 63.453l-32.698 42.04c-13.902 17.876-12.312 43.432 3.702 59.445l2.487 2.487-61.675 61.677c-5.858 5.858-5.858 15.355 0 21.213 5.857 5.858 15.356 5.858 21.213 0l61.676-61.676 2.487 2.487c16.02 16.02 41.574 17.601 59.445 3.702l42.041-32.698c16.826-13.087 37.999-18.9 63.453-13.801 44.228 8.844 89.852-4.84 121.931-36.919l60.653-60.653c5.858-5.858 5.858-15.355 0-21.213l-10.606-10.606 72.123-72.123c17.585-17.587 17.589-46.052 0-63.64zM329.107 34.387c5.849-5.849 15.364-5.848 21.213 0 5.849 5.849 5.849 15.365 0 21.214l-72.123 72.123-21.213-21.213 72.123-72.124zM130.796 428.423c-5.96 4.635-14.479 4.103-19.815-1.234l-26.186-26.186c-5.338-5.338-5.868-13.857-1.234-19.816l28.993-37.276 55.52 55.519-37.278 28.993zm224.63-80.951c-24.878 24.879-60.329 35.615-94.833 28.715-22.727-4.553-44.451-3.259-66.579 6.759l-64.949-64.949c10.062-22.056 11.508-43.729 6.933-66.604-6.922-34.607 3.737-70.06 28.513-94.836l50.047-50.046 190.915 190.914-50.047 50.047zm122.17-164.596L405.473 255l-21.214-21.213 72.125-72.124c5.86-5.861 15.349-5.862 21.212 0 5.863 5.864 5.862 15.35 0 21.213z" fill="#000000" opacity="1" data-original="#000000" class=""></path></g></svg>