<svg xmlns="http://www.w3.org/2000/svg" version="1.1" xmlns:xlink="http://www.w3.org/1999/xlink" width="512" height="512" x="0" y="0" viewBox="0 0 512 512" style="enable-background:new 0 0 512 512" xml:space="preserve" class=""><g><path d="M271 361c8.291 0 15-6.709 15-15V166c0-8.291-6.709-15-15-15h-30c-8.291 0-15 6.709-15 15v180c0 8.291 6.709 15 15 15zM497 452H316c-8.291 0-15 6.709-15 15v30c0 8.291 6.709 15 15 15h181c8.291 0 15-6.709 15-15v-30c0-8.291-6.709-15-15-15zM196 0H15C6.709 0 0 6.709 0 15v30c0 8.291 6.709 15 15 15h181c8.291 0 15-6.709 15-15V15c0-8.291-6.709-15-15-15zM30 90v76c0 90.981 75.019 165 166 165V169.296c-9.139-8.243-15-20.048-15-33.296V90zM482 422v-76c0-90.981-75.019-165-166-165v161.704c9.139 8.243 15 20.048 15 33.296v46z" fill="#000000" opacity="1" data-original="#000000"></path></g></svg>